# xmcd
#
# Track frame offsets:
#	180
#	12097
#	23605
#	34999
#	46520
#	57919
#	68066
#
# Disc length: 1075
#
# Revision: 2
# Processed by: cddbd v1.5.1PL0 Copyright (c) Steve Scherf et al.
# Submitted via: audiograbber 1.80
# Normalized: r1:DSETVAR1
#
DISCID=4a043107
DTITLE=Various Artist - Unforgettable Country Classics
DYEAR=1900
DGENRE=
TTITLE0=Patsy Cline - Walkin' After Midnight
TTITLE1=Roger Miller - King of the Road
TTITLE2=Roger Miller - Husbands and Wives
TTITLE3=Conway Twitty - Hello Darlin'
TTITLE4=Conway Twitty - It's only Make Believe
TTITLE5=Merle Haggard - Mama Tried
TTITLE6=Merle Haggard - Okie from Muskogee
EXTD=
EXTT0=
EXTT1=
EXTT2=
EXTT3=
EXTT4=
EXTT5=
EXTT6=
PLAYORDER=
